<?xml version="1.0" encoding="UTF-8"?>
<svg version="1.1" xmlns="http://www.w3.org/2000/svg" width="292" height="55">
<path d="M0 0 C4.49987562 -0.08767743 8.999529 -0.14062009 13.5 -0.1875 C15.40265625 -0.22520508 15.40265625 -0.22520508 17.34375 -0.26367188 C25.30488575 -0.32586825 31.42601985 -0.10142179 38.171875 4.47265625 C44.18343021 10.52885172 47.15244895 17.04971421 47.4375 25.625 C47.11625586 32.98252708 45.05497644 38.91536667 39.90136719 44.28930664 C31.99617709 51.40174462 23.57357513 51.65385293 13.375 51.3125 C12.08464844 51.28994141 10.79429688 51.26738281 9.46484375 51.24414062 C6.3086576 51.18569273 3.15496495 51.10380275 0 51 C0 50.01 0 49.02 0 48 C0.64960693 47.98541748 1.29921387 47.97083496 1.96850586 47.95581055 C4.9587194 47.88058338 7.94790597 47.78417388 10.9375 47.6875 C12.46987305 47.65366211 12.46987305 47.65366211 14.03320312 47.61914062 C23.03121883 47.30291643 30.86212783 46.0186255 37.55859375 39.6484375 C42.29683291 34.22963825 42.47024831 28.75219491 42.296875 21.80859375 C41.92889354 18.32729544 40.90194758 15.9260732 39 13 C38.690625 12.2575 38.38125 11.515 38.0625 10.75 C36.64326103 8.41242993 35.55090605 8.0069366 33 7 C31.34871094 6.24976563 31.34871094 6.24976563 29.6640625 5.484375 C23.92415418 3.33533142 18.06371611 3.43405216 12 3.3125 C10.84371094 3.27833984 9.68742187 3.24417969 8.49609375 3.20898438 C5.66415954 3.12706892 2.83251299 3.05773478 0 3 C0 2.01 0 1.02 0 0 Z " fill="#6623DB" transform="translate(8,2)"/>
<path d="M0 0 C0.86625 0.01804687 1.7325 0.03609375 2.625 0.0546875 C3.800625 0.08949219 3.800625 0.08949219 5 0.125 C5.99 0.125 6.98 0.125 8 0.125 C9.32 0.125 10.64 0.125 12 0.125 C11.43993711 3.50428624 10.84782323 6.87720624 10.25 10.25 C10.01410156 11.67699219 10.01410156 11.67699219 9.7734375 13.1328125 C8.6511529 19.3485426 7.45469655 24.50419572 2.1875 28.5 C-2.13132288 29.7339494 -5.72546563 29.65143811 -9.875 27.9375 C-12.4396165 25.75003298 -12.7323244 24.42633235 -13 21.125 C-11.68 21.125 -10.36 21.125 -9 21.125 C-8.34 22.115 -7.68 23.105 -7 24.125 C-3.54230809 24.70842353 -3.54230809 24.70842353 0 24.125 C1.98239527 22.26375077 1.98239527 22.26375077 3 20.125 C2.34 20.455 1.68 20.785 1 21.125 C-5.85082873 21.56698895 -5.85082873 21.56698895 -9.4375 20.1875 C-11.99851448 16.80696088 -12.30444522 13.29728329 -12 9.125 C-9.82909448 2.99334666 -6.58176614 -0.17629731 0 0 Z M-6 6.125 C-7.97925691 8.73402048 -8.01107351 9.94044156 -7.8125 13.25 C-7.25088039 16.42707184 -7.25088039 16.42707184 -4 18.125 C-0.99096209 18.27696754 -0.99096209 18.27696754 2 17.125 C4.89509999 13.93296668 6.02105318 12.21976548 5.9375 7.875 C5.20900495 4.8248234 5.20900495 4.8248234 2 3.125 C-1.65351863 3.125 -3.06026776 4.01442301 -6 6.125 Z " fill="#FFFFFF" transform="translate(248,16.875)"/>
<path d="M0 0 C4.20820145 -0.08742801 8.41616776 -0.14053641 12.625 -0.1875 C14.40970703 -0.22520508 14.40970703 -0.22520508 16.23046875 -0.26367188 C23.59559711 -0.32539083 28.43081089 0.02567574 34.25 4.875 C37.9844262 9.40966039 38.44924653 13.69878611 38.3125 19.43359375 C37.61436979 25.16698807 35.42335168 28.86712825 30.9375 32.4375 C26.77914098 34.6493931 23.88692526 35.12125343 19.23828125 35.09765625 C18.12001953 35.09443359 17.00175781 35.09121094 15.84960938 35.08789062 C14.68236328 35.07951172 13.51511719 35.07113281 12.3125 35.0625 C11.13365234 35.05798828 9.95480469 35.05347656 8.74023438 35.04882812 C5.82677211 35.03703273 2.91341137 35.0205727 0 35 C0.33 33.68 0.66 32.36 1 31 C1.69561035 30.9906543 2.3912207 30.98130859 3.10791016 30.97167969 C6.280975 30.91776454 9.4525991 30.83415827 12.625 30.75 C13.71941406 30.73582031 14.81382813 30.72164062 15.94140625 30.70703125 C22.17149714 30.51824062 26.35694929 30.34996778 31 26 C33.74254438 21.989227 33.64326223 17.69011452 33 13 C30.91229249 8.49055177 28.77997464 6.48078638 24.19116211 4.62011719 C19.74527192 3.36189311 15.15499548 3.41707862 10.5625 3.3125 C9.03592773 3.26125977 9.03592773 3.26125977 7.47851562 3.20898438 C4.98578734 3.12706373 2.49338598 3.05773351 0 3 C0 2.01 0 1.02 0 0 Z " fill="#6723DA" transform="translate(8,10)"/>
<path d="M0 0 C0.69416016 -0.01224609 1.38832031 -0.02449219 2.10351562 -0.03710938 C3.92470901 -0.04239842 5.7453692 0.06580793 7.5625 0.1875 C9.5625 2.1875 9.5625 2.1875 9.8125 6.0625 C9.76214878 8.61210259 9.67890524 9.96153688 8.5 12.25 C7.25170976 14.35605095 7.25170976 14.35605095 8.125 17.625 C8.5625 21.1875 8.5625 21.1875 7.3125 24.0625 C5.5625 26.1875 5.5625 26.1875 2.5625 27.1875 C-0.01015818 27.25779121 -2.55391431 27.28120832 -5.125 27.25 C-5.82689453 27.24548828 -6.52878906 27.24097656 -7.25195312 27.23632812 C-8.98050538 27.22456927 -10.70901365 27.20663454 -12.4375 27.1875 C-10.79893798 0.00997132 -10.79893798 0.00997132 0 0 Z M-4.4375 3.1875 C-4.7675 5.8275 -5.0975 8.4675 -5.4375 11.1875 C-0.15236665 11.65062039 -0.15236665 11.65062039 4.625 9.9375 C5.76955928 8.20177268 5.76955928 8.20177268 5.3125 6.0625 C4.71295529 4.20664885 4.71295529 4.20664885 3.5625 3.1875 C0.89191149 3.04634839 -1.76182238 3.14502893 -4.4375 3.1875 Z M-6.4375 15.1875 C-7.0975 18.1575 -7.7575 21.1275 -8.4375 24.1875 C-2.18163152 24.82692151 -2.18163152 24.82692151 3.125 22.1875 C3.8365625 21.1975 3.8365625 21.1975 4.5625 20.1875 C3.9025 18.5375 3.2425 16.8875 2.5625 15.1875 C-0.4075 15.1875 -3.3775 15.1875 -6.4375 15.1875 Z " fill="#FFFFFF" transform="translate(179.4375,10.8125)"/>
<path d="M0 0 C0.66902344 -0.03738281 1.33804688 -0.07476562 2.02734375 -0.11328125 C5.94798088 -0.18260489 7.57710586 0.23677715 10.671875 2.7109375 C13.55836563 6.41128827 14.15806443 9.50236819 14.09765625 14.1796875 C13.31250822 19.13758856 10.45322042 23.01736054 6.59375 26.09375 C2.85093346 27.78007394 -0.546004 27.70248512 -4.5625 27.5625 C-5.67334961 27.54219727 -5.67334961 27.54219727 -6.80664062 27.52148438 C-8.62141075 27.48635979 -10.43580288 27.43255972 -12.25 27.375 C-11.81334011 21.11118919 -10.8943676 14.98009709 -9.75 8.8125 C-9.61940186 8.09771484 -9.48880371 7.38292969 -9.35424805 6.64648438 C-8.04726346 -0.22035801 -6.57899373 0.13628801 0 0 Z M-4.25 3.375 C-4.75734284 5.7486397 -5.25602386 8.12357425 -5.75 10.5 C-5.89308594 11.16515625 -6.03617187 11.8303125 -6.18359375 12.515625 C-7.0112283 16.53556422 -7.40330658 20.27404899 -7.25 24.375 C-0.28715076 24.25433916 -0.28715076 24.25433916 5.75 21.125 C8.52624037 17.3076695 9.84911212 15.02686861 9.5625 10.25 C8.72593269 7.28983876 8.19733277 6.16343549 5.75 4.375 C2.27674819 3.2172494 -0.61067448 3.30633348 -4.25 3.375 Z " fill="#FFFFFF" transform="translate(74.25,10.625)"/>
<path d="M0 0 C1.65 0 3.3 0 5 0 C4.19242459 4.45924011 3.37811136 8.91722328 2.5625 13.375 C2.33240234 14.64601563 2.10230469 15.91703125 1.86523438 17.2265625 C1.53168945 19.04414062 1.53168945 19.04414062 1.19140625 20.8984375 C0.88505249 22.57945557 0.88505249 22.57945557 0.57250977 24.29443359 C0 27 0 27 -1 29 C-7.00007656 30.18587901 -12.88533528 31.13565327 -18.375 28.1875 C-20.66177884 23.70189535 -21.00864996 19.93292871 -20 15 C-18.29846685 11.88469299 -16.2232112 9.6116056 -13 8 C-11.50243129 7.90500497 -10.00057068 7.87012802 -8.5 7.875 C-7.30890625 7.87113281 -7.30890625 7.87113281 -6.09375 7.8671875 C-4 8 -4 8 -2 9 C-1.34 6.03 -0.68 3.06 0 0 Z M-15 15 C-16.39935013 17.79870027 -16.25265405 19.90498792 -16 23 C-15.08333333 25.08333333 -15.08333333 25.08333333 -13 26 C-9.30625169 25.93404021 -6.93887127 25.78744042 -4.0625 23.375 C-2.56875549 20.03604169 -2.54032195 17.61175607 -3 14 C-4.69164222 11.95970404 -4.69164222 11.95970404 -7 11 C-10.93631364 11 -12.12605026 12.42857129 -15 15 Z " fill="#FFFFFF" transform="translate(232,9)"/>
<path d="M0 0 C0.7940625 -0.01417969 1.588125 -0.02835938 2.40625 -0.04296875 C4.5 0.1875 4.5 0.1875 6.5 2.1875 C6.83 1.5275 7.16 0.8675 7.5 0.1875 C8.82 0.1875 10.14 0.1875 11.5 0.1875 C10.89700836 7.42339973 9.3849413 14.18120876 7.5 21.1875 C5.27404152 21.46461526 3.04388779 21.70816929 0.8125 21.9375 C-0.42886719 22.07671875 -1.67023438 22.2159375 -2.94921875 22.359375 C-6.5 22.1875 -6.5 22.1875 -9.41796875 20.5390625 C-12.54392134 17.00843687 -12.19418361 14.42966689 -12 9.890625 C-11.22748774 5.71423059 -9.62164539 4.01184583 -6.5 1.1875 C-4.14653604 0.01076802 -2.6193967 0.02126134 0 0 Z M-6.5 7.1875 C-7.89935013 9.98620027 -7.75265405 12.09248792 -7.5 15.1875 C-6.58333333 17.27083333 -6.58333333 17.27083333 -4.5 18.1875 C-0.95421315 18.34775399 -0.95421315 18.34775399 2.5 17.1875 C4.90753183 14.46931891 5.43576192 12.64634341 5.9375 9.0625 C5.77147746 6.10628962 5.77147746 6.10628962 3.6875 4.3125 C-0.95384462 1.92552276 -2.96107006 4.021089 -6.5 7.1875 Z " fill="#FFFFFF" transform="translate(145.5,16.8125)"/>
<path d="M0 0 C1.31291016 -0.03867187 1.31291016 -0.03867187 2.65234375 -0.078125 C5.0625 0.25 5.0625 0.25 6.83203125 1.54296875 C8.78661006 4.25455904 8.82477858 6.98133043 9.0625 10.25 C8.7325 10.91 8.4025 11.57 8.0625 12.25 C2.7825 12.25 -2.4975 12.25 -7.9375 12.25 C-6.9475 13.9 -5.9575 15.55 -4.9375 17.25 C-2.4375 17.91666667 -2.4375 17.91666667 0.0625 17.25 C0.578125 16.734375 1.09375 16.21875 1.625 15.6875 C2.099375 15.213125 2.57375 14.73875 3.0625 14.25 C5.25 14.5625 5.25 14.5625 7.0625 15.25 C6.08196718 17.83504106 5.09112665 19.22484325 3 21.0625 C-1.03106589 22.69207983 -4.80479073 22.66626554 -8.9375 21.25 C-11.71962662 18.44915953 -12.38887666 16.27702301 -12.4375 12.375 C-12.3399554 8.70623936 -11.89969783 6.54330682 -9.5625 3.6875 C-6.13278066 0.50276061 -4.56639614 0.08046513 0 0 Z M-5.9375 6.25 C-6.2675 7.24 -6.5975 8.23 -6.9375 9.25 C-2.9775 9.25 0.9825 9.25 5.0625 9.25 C3.72022141 4.36324115 3.72022141 4.36324115 1.25 3.25 C-1.87629946 3.25 -3.47753358 4.38840379 -5.9375 6.25 Z " fill="#FFFFFF" transform="translate(272.9375,16.75)"/>
<path d="M0 0 C2.625 2.0625 2.625 2.0625 4 5 C4 7.31 4 9.62 4 12 C-1.61 12 -7.22 12 -13 12 C-12.34 13.32 -11.68 14.64 -11 16 C-8.08995097 17.08223366 -8.08995097 17.08223366 -5 17 C-3.37485532 15.54166642 -3.37485532 15.54166642 -2 14 C0.1875 14.3125 0.1875 14.3125 2 15 C1.69611836 17.93752254 1.19330344 18.84080893 -1.125 20.75 C-4.73716162 22.32050505 -7.09351583 22.48831052 -11 22 C-13.75329021 20.20437595 -15.52627461 18.94745078 -17 16 C-17.50872093 9.89534886 -17.06705978 6.88047174 -13 2 C-8.76882804 -0.8207813 -4.96732029 -0.78046276 0 0 Z M-11 6 C-11.33 6.99 -11.66 7.98 -12 9 C-8.04 9 -4.08 9 0 9 C-0.62841973 5.0285831 -0.62841973 5.0285831 -3 3 C-6.62453269 3 -8.07920195 3.92469613 -11 6 Z " fill="#FFFFFF" transform="translate(106,17)"/>
<path d="M0 0 C1.21880859 -0.01224609 2.43761719 -0.02449219 3.69335938 -0.03710938 C5.43649414 -0.04000977 5.43649414 -0.04000977 7.21484375 -0.04296875 C8.28726318 -0.04707764 9.35968262 -0.05118652 10.46459961 -0.05541992 C13.0625 0.1875 13.0625 0.1875 15.0625 2.1875 C15.375 4.6875 15.375 4.6875 15.0625 7.1875 C10.39004625 10.30246916 5.55664246 9.51600857 0.0625 9.5 C-1.59652344 9.52416992 -1.59652344 9.52416992 -3.2890625 9.54882812 C-4.34867188 9.54947266 -5.40828125 9.55011719 -6.5 9.55078125 C-7.95599609 9.55525269 -7.95599609 9.55525269 -9.44140625 9.55981445 C-11.9375 9.1875 -11.9375 9.1875 -13.79296875 7.82885742 C-14.9375 6.1875 -14.9375 6.1875 -14.6875 3.5625 C-12.85581463 -2.23783701 -5.14805486 0.00271379 0 0 Z " fill="#6723DB" transform="translate(22.9375,22.8125)"/>
<path d="M0 0 C1.32 0 2.64 0 4 0 C4 1.32 4 2.64 4 4 C5.65 4.33 7.3 4.66 9 5 C9 6.32 9 7.64 9 9 C6.69 9 4.38 9 2 9 C2 13.29 2 17.58 2 22 C3.32 22.33 4.64 22.66 6 23 C6 23.99 6 24.98 6 26 C4.72125 26.061875 3.4425 26.12375 2.125 26.1875 C1.04605469 26.23970703 1.04605469 26.23970703 -0.0546875 26.29296875 C-0.69664063 26.19628906 -1.33859375 26.09960938 -2 26 C-4.26316991 22.60524513 -4.17045826 21.93198488 -3.6875 18.0625 C-3.58824219 17.20785156 -3.48898438 16.35320313 -3.38671875 15.47265625 C-3.04159973 13.26598618 -2.58470623 11.15391782 -2 9 C-2.99 9 -3.98 9 -5 9 C-5 7.68 -5 6.36 -5 5 C-3.68 5 -2.36 5 -1 5 C-0.67 3.35 -0.34 1.7 0 0 Z " fill="#FFFFFF" transform="translate(126,12)"/>
<path d="M0 0 C1.65 0 3.3 0 5 0 C4.19242459 4.45924011 3.37811136 8.91722328 2.5625 13.375 C2.33240234 14.64601563 2.10230469 15.91703125 1.86523438 17.2265625 C1.64287109 18.43828125 1.42050781 19.65 1.19140625 20.8984375 C0.98717041 22.01911621 0.78293457 23.13979492 0.57250977 24.29443359 C0 27 0 27 -1 29 C-2.32 29 -3.64 29 -5 29 C-3.58524699 19.27981461 -1.85694726 9.64374611 0 0 Z " fill="#FFFFFF" transform="translate(116,9)"/>
<path d="M0 0 C0.804375 0.185625 1.60875 0.37125 2.4375 0.5625 C3.283125 0.706875 4.12875 0.85125 5 1 C5.33 0.67 5.66 0.34 6 0 C7.66617115 -0.04063832 9.33388095 -0.042721 11 0 C10.8125 1.875 10.8125 1.875 10 4 C8.80890625 4.32484375 8.80890625 4.32484375 7.59375 4.65625 C4.62511327 5.8330419 4.62511327 5.8330419 3.63671875 9.4765625 C3.29890755 10.85430229 2.98315392 12.2376024 2.6875 13.625 C2.51927734 14.33140625 2.35105469 15.0378125 2.17773438 15.765625 C1.76615172 17.50603164 1.38052939 19.25254101 1 21 C-0.32 21 -1.64 21 -3 21 C-2.48462048 13.86606248 -1.55994099 6.98187183 0 0 Z " fill="#FFFFFF" transform="translate(193,17)"/>
<path d="M0 0 C1.32 0 2.64 0 4 0 C3.45136137 6.7857936 2.45732062 13.35009036 1 20 C-0.65 20.33 -2.3 20.66 -4 21 C-2.68 14.07 -1.36 7.14 0 0 Z " fill="#FFFFFF" transform="translate(206,17)"/>
<path d="M0 0 C1.32 0 2.64 0 4 0 C4.33 0.99 4.66 1.98 5 3 C4.01 4.485 4.01 4.485 3 6 C1.68 6 0.36 6 -1 6 C-1.33 5.01 -1.66 4.02 -2 3 C-1.34 2.01 -0.68 1.02 0 0 Z " fill="#FFFFFF" transform="translate(208,8)"/>
</svg>
